<svg width="613" height="660" viewBox="0 0 613 660" fill="none" xmlns="http://www.w3.org/2000/svg">
<path d="M0 24.8988C0 11.1476 11.1476 0 24.8989 0C38.6501 0 49.7978 11.1476 49.7978 24.8989V190.131C49.7978 190.987 50.4916 191.681 51.3475 191.681C51.9253 191.681 52.4573 191.354 52.7274 190.843C73.5015 151.572 106.346 131.936 151.261 131.936C190.684 131.936 221.393 146.665 243.387 176.122C265.796 205.58 277 246.862 277 299.968C277 353.074 265.796 394.356 243.387 423.814C221.393 453.271 190.684 468 151.261 468C106.346 468 73.5015 448.364 52.7274 409.093C52.4573 408.582 51.9253 408.255 51.3475 408.255C50.4916 408.255 49.7978 408.949 49.7978 409.805V435.633C49.7978 449.384 38.6501 460.532 24.8989 460.532C11.1476 460.532 0 449.384 0 435.633V24.8988ZM131.964 423.814C161.013 423.814 183.422 415.101 199.191 397.676C215.375 379.835 223.467 356.394 223.467 327.351V272.585C223.467 243.543 215.375 220.309 199.191 202.883C183.422 185.043 161.013 176.122 131.964 176.122C120.76 176.122 110.178 177.574 100.218 180.479C90.2584 183.383 81.5438 187.739 74.0742 193.548C66.6045 198.941 60.5873 205.787 56.0225 214.085C51.8727 221.968 49.7978 231.303 49.7978 242.09V357.846C49.7978 368.633 51.8727 378.176 56.0225 386.473C60.5873 394.356 66.6045 401.202 74.0742 407.011C81.5438 412.404 90.2584 416.553 100.218 419.457C110.178 422.362 120.76 423.814 131.964 423.814Z" fill="white"/>
<path d="M141.816 363.919C139.809 350.813 149.951 339 163.21 339C174.066 339 183.242 347.042 184.666 357.804L218.51 613.589C218.727 615.228 220.125 616.453 221.779 616.453C223.354 616.453 224.709 615.34 225.014 613.795L273.944 365.86C277.024 350.251 290.713 339 306.622 339C322.532 339 336.22 350.251 339.301 365.86L388.231 613.795C388.536 615.34 389.891 616.453 391.466 616.453C393.12 616.453 394.518 615.228 394.735 613.589L428.649 357.274C430.033 346.816 438.95 339 449.5 339C462.386 339 472.242 350.481 470.292 363.217L429.831 627.439C426.962 646.168 410.852 660 391.903 660C373.472 660 357.645 646.895 354.207 628.787L309.576 393.707C309.306 392.285 308.064 391.256 306.617 391.256C305.174 391.256 303.935 392.278 303.659 393.693L257.918 628.886C254.404 646.955 238.578 660 220.17 660C201.18 660 185.033 646.137 182.158 627.366L141.816 363.919Z" fill="white"/>
<path d="M563.202 409.805C563.202 408.949 562.508 408.255 561.652 408.255C561.075 408.255 560.543 408.582 560.273 409.093C539.498 448.364 506.654 468 461.739 468C422.316 468 391.4 453.271 368.991 423.814C346.997 394.356 336 353.074 336 299.968C336 246.862 346.997 205.58 368.991 176.122C391.4 146.665 422.316 131.936 461.739 131.936C506.654 131.936 539.498 151.572 560.273 190.843C560.543 191.354 561.075 191.681 561.652 191.681C562.508 191.681 563.202 190.987 563.202 190.131V24.8989C563.202 11.1476 574.35 0 588.101 0C601.852 0 613 11.1476 613 24.8989V435.633C613 449.384 601.852 460.532 588.101 460.532C574.35 460.532 563.202 449.384 563.202 435.633V409.805ZM481.036 423.814C492.24 423.814 502.822 422.362 512.782 419.457C522.742 416.553 531.456 412.404 538.926 407.011C546.396 401.202 552.205 394.356 556.355 386.473C560.92 378.176 563.202 368.633 563.202 357.846V242.09C563.202 231.303 560.92 221.968 556.355 214.085C552.205 205.787 546.396 198.941 538.926 193.548C531.456 187.739 522.742 183.383 512.782 180.479C502.822 177.574 492.24 176.122 481.036 176.122C451.987 176.122 429.371 185.043 413.187 202.883C397.417 220.309 389.533 243.543 389.533 272.585V327.351C389.533 356.394 397.417 379.835 413.187 397.676C429.371 415.101 451.987 423.814 481.036 423.814Z" fill="white"/>
</svg>
