<?xml version="1.0" encoding="utf-8"?>
<svg xmlns="http://www.w3.org/2000/svg" viewBox="0 0 64 64" width="512" height="512">
  <path d="M32 7.984375C26.058594 7.984375 20.121094 8.316406 14.21875 8.96875L11.03125 9.324219C6.964844 9.777344 3.714844 12.921875 3.132813 16.980469C1.710938 26.945313 1.648438 37.054688 2.953125 47.035156L3.195313 48.921875C3.734375 53.035156 6.988281 56.226563 11.109375 56.6875L14.21875 57.03125C20.121094 57.6875 26.058594 58.015625 32 58.015625C37.941406 58.015625 43.882813 57.6875 49.78125 57.03125L52.890625 56.6875C57.011719 56.226563 60.265625 53.035156 60.800781 48.921875L61.046875 47.03125C62.351563 37.054688 62.289063 26.941406 60.863281 16.980469C60.285156 12.921875 57.035156 9.777344 52.96875 9.324219L49.78125 8.96875C43.878906 8.316406 37.941406 7.984375 32 7.984375 Z M 32 9.984375C37.867188 9.984375 43.734375 10.308594 49.558594 10.957031L52.746094 11.3125C55.910156 11.660156 58.433594 14.109375 58.886719 17.261719C60.28125 27.046875 60.34375 36.976563 59.0625 46.773438L58.816406 48.660156C58.398438 51.859375 55.871094 54.339844 52.667969 54.699219L49.558594 55.042969C37.90625 56.335938 26.09375 56.339844 14.441406 55.042969L11.332031 54.699219C8.128906 54.339844 5.597656 51.859375 5.179688 48.660156L4.9375 46.777344C3.65625 36.976563 3.71875 27.046875 5.117188 17.261719C5.566406 14.109375 8.089844 11.660156 11.253906 11.3125L14.441406 10.957031C20.269531 10.308594 26.132813 9.984375 32 9.984375 Z M 9 14C8.449219 14 8 14.445313 8 15L8 17C8 17.554688 8.449219 18 9 18C9.550781 18 10 17.554688 10 17L10 15C10 14.445313 9.550781 14 9 14 Z M 14 14C13.449219 14 13 14.445313 13 15L13 17C13 17.554688 13.449219 18 14 18C14.550781 18 15 17.554688 15 17L15 15C15 14.445313 14.550781 14 14 14 Z M 19 14C18.449219 14 18 14.445313 18 15L18 17C18 17.554688 18.449219 18 19 18C19.550781 18 20 17.554688 20 17L20 15C20 14.445313 19.550781 14 19 14 Z M 24 14C23.449219 14 23 14.445313 23 15L23 17C23 17.554688 23.449219 18 24 18C24.550781 18 25 17.554688 25 17L25 15C25 14.445313 24.550781 14 24 14 Z M 29 14C28.449219 14 28 14.445313 28 15L28 17C28 17.554688 28.449219 18 29 18C29.550781 18 30 17.554688 30 17L30 15C30 14.445313 29.550781 14 29 14 Z M 34 14C33.449219 14 33 14.445313 33 15L33 17C33 17.554688 33.449219 18 34 18C34.550781 18 35 17.554688 35 17L35 15C35 14.445313 34.550781 14 34 14 Z M 39 14C38.449219 14 38 14.445313 38 15L38 17C38 17.554688 38.449219 18 39 18C39.550781 18 40 17.554688 40 17L40 15C40 14.445313 39.550781 14 39 14 Z M 44 14C43.449219 14 43 14.445313 43 15L43 17C43 17.554688 43.449219 18 44 18C44.550781 18 45 17.554688 45 17L45 15C45 14.445313 44.550781 14 44 14 Z M 49 14C48.449219 14 48 14.445313 48 15L48 17C48 17.554688 48.449219 18 49 18C49.550781 18 50 17.554688 50 17L50 15C50 14.445313 49.550781 14 49 14 Z M 54 14C53.449219 14 53 14.445313 53 15L53 17C53 17.554688 53.449219 18 54 18C54.550781 18 55 17.554688 55 17L55 15C55 14.445313 54.550781 14 54 14 Z M 24.984375 21.890625C24.8125 21.894531 24.644531 21.941406 24.492188 22.03125C24.1875 22.210938 24 22.535156 24 22.890625L24 43C24 43.355469 24.1875 43.679688 24.492188 43.859375C24.648438 43.953125 24.824219 44 25 44C25.167969 44 25.332031 43.957031 25.484375 43.875L43.769531 33.855469C44.089844 33.675781 44.292969 33.34375 44.292969 32.980469C44.292969 32.613281 44.09375 32.277344 43.777344 32.101563L25.484375 22.015625C25.328125 21.929688 25.15625 21.886719 24.984375 21.890625 Z M 26 24.582031L41.21875 32.972656L26 41.3125 Z M 9 48C8.449219 48 8 48.445313 8 49L8 51C8 51.554688 8.449219 52 9 52C9.550781 52 10 51.554688 10 51L10 49C10 48.445313 9.550781 48 9 48 Z M 14 48C13.449219 48 13 48.445313 13 49L13 51C13 51.554688 13.449219 52 14 52C14.550781 52 15 51.554688 15 51L15 49C15 48.445313 14.550781 48 14 48 Z M 19 48C18.449219 48 18 48.445313 18 49L18 51C18 51.554688 18.449219 52 19 52C19.550781 52 20 51.554688 20 51L20 49C20 48.445313 19.550781 48 19 48 Z M 24 48C23.449219 48 23 48.445313 23 49L23 51C23 51.554688 23.449219 52 24 52C24.550781 52 25 51.554688 25 51L25 49C25 48.445313 24.550781 48 24 48 Z M 29 48C28.449219 48 28 48.445313 28 49L28 51C28 51.554688 28.449219 52 29 52C29.550781 52 30 51.554688 30 51L30 49C30 48.445313 29.550781 48 29 48 Z M 34 48C33.449219 48 33 48.445313 33 49L33 51C33 51.554688 33.449219 52 34 52C34.550781 52 35 51.554688 35 51L35 49C35 48.445313 34.550781 48 34 48 Z M 39 48C38.449219 48 38 48.445313 38 49L38 51C38 51.554688 38.449219 52 39 52C39.550781 52 40 51.554688 40 51L40 49C40 48.445313 39.550781 48 39 48 Z M 44 48C43.449219 48 43 48.445313 43 49L43 51C43 51.554688 43.449219 52 44 52C44.550781 52 45 51.554688 45 51L45 49C45 48.445313 44.550781 48 44 48 Z M 49 48C48.449219 48 48 48.445313 48 49L48 51C48 51.554688 48.449219 52 49 52C49.550781 52 50 51.554688 50 51L50 49C50 48.445313 49.550781 48 49 48 Z M 54 48C53.449219 48 53 48.445313 53 49L53 51C53 51.554688 53.449219 52 54 52C54.550781 52 55 51.554688 55 51L55 49C55 48.445313 54.550781 48 54 48Z" fill="#5B5B5B" />
</svg>